<svg viewBox="0 0 1412 1263" ed:name="Page-1" xmlns="http://www.w3.org/2000/svg" xmlns:xlink="http://www.w3.org/1999/xlink" height="1263" xmlns:ed="https://www.edrawsoft.cn/xml/2017/SVGExtensions/" ed:hSpacing="30" id="page100" xmlns:ev="http://www.w3.org/2001/xml-events" width="1412" ed:vSpacing="30"><style type="text/css"><![CDATA[
g[ed\:togtopicid],g[ed\:hyperlink],g[ed\:comment],g[ed\:note] {cursor:pointer;}
g[id] {-moz-user-select: none;-ms-user-select: none;user-select: none;}
svg text::selection,svg tspan::selection{background-color: #4285f4;color: #ffffff;fill: #ffffff;}
.st4 {fill:#303030;font-family:宋体;font-size:10pt}
.st3 {fill:#303030;font-family:宋体;font-size:14pt}
.st5 {fill:#ffffff;font-family:宋体;font-size:12pt}
.st2 {fill:#ffffff;font-family:宋体;font-size:14pt}
.st1 {fill:#ffffff;font-family:宋体;font-size:16pt}
]]></style><defs><path id="path1" d="M50,274C50,150.3,150.3,50,274,50C290.2,50,305.9,51.7,321.1,55"/><path id="path2" d="M321,55L321.1,55C422.2,76.6,498,166.5,498,274C498,325.4,480.7,372.7,451.6,410.5"/><path id="path3" d="M187,480.5C213.8,491.8,243.2,498,274,498C346.3,498,410.7,463.7,451.6,410.5L451.6,410.5"/><path id="path4" d="M50,274C50,366.9,106.5,446.5,187,480.5L187.1,480.5"/></defs><rect fill="#ffffff" height="1263" x="0" y="0" width="1412"/><g transform="matrix(1,0,0,1,616,425)" id="101" ed:topictype="mainidea" ed:layout="map" ed:width="338" ed:height="338"><path fill="#ccb8b3" stroke-linejoin="round" stroke="#ccb8b3" d="M338,169C338,262.3,262.3,338,169,338C75.7,338,0,262.3,0,169C0,75.7,75.7,0,169,0C262.3,0,338,75.7,338,169z"/><text class="st1"><tspan style="white-space:pre" x="52" y="109.5">微服务（microservices）</tspan><tspan style="white-space:pre" x="50" y="144.5">(提倡将单一应用程序划分</tspan><tspan style="white-space:pre" x="53" y="179.5">成一组小的服务，服务之</tspan><tspan style="white-space:pre" x="53" y="214.5">间互相协调、互相配合，</tspan><tspan style="white-space:pre" x="71" y="249.5">为用户提供最终价值)</tspan></text></g><g transform="matrix(1,0,0,1,511,320)" ed:parentid="101" id="102" ed:width="548" ed:height="548"><path fill="#feda9b" stroke-linejoin="round" stroke="#ffffff" stroke-width="3" d="M96,274L4,274C1.3,274,-0,272.7,0,270C2.2,120.5,124,0,274,0C292.4,0,310.3,1.8,327.6,5.3C330.2,5.8,331.2,7.4,330.7,10L311.4,100C310.8,102.6,309.2,103.6,306.6,103.1C296.1,101,285.2,100,274,100C179.2,100,102.2,175.8,100,270C100,272.7,98.7,274,96,274z"/><text class="st2"><textPath xlink:href="#path1"><tspan x="180.7 199.7 " dy="4">优势</tspan></textPath></text></g><g transform="matrix(1,0,0,1,213,22)" ed:parentid="230" id="104" ed:width="1144" ed:height="1144"><path fill="#f4d8e9" stroke-linejoin="round" stroke="#ffffff" stroke-width="2" d="M921.7,840.7L1025.5,920.6C984.1,974.4,933.3,1020.7,875.4,1056.9L806,945.8C850.5,917.9,889.7,882.3,921.7,840.7z"/><text transform="matrix(0.67,0.74,-0.74,0.67,1000,-365)" class="st3"><tspan style="white-space:pre" x="885" y="951.4">dubbo</tspan></text></g><g transform="matrix(1,0,0,1,213,22)" ed:parentid="230" id="112" ed:width="1144" ed:height="1144"><path fill="#f4d8e9" stroke-linejoin="round" stroke="#ffffff" stroke-width="2" d="M806,945.8L875.4,1056.9C822.2,1090.4,763,1115.2,699.7,1129.6L670.5,1001.9C719.3,990.8,765,971.6,806,945.8z"/><text transform="matrix(0.38,0.92,-0.92,0.38,1434,-65)" class="st3"><tspan style="white-space:pre" x="712" y="1044.5">spring-cloud</tspan></text></g><g transform="matrix(1,0,0,1,511,320)" ed:parentid="101" id="114" ed:width="548" ed:height="548"><path fill="#c8c3b3" stroke-linejoin="round" stroke="#ffffff" stroke-width="3" d="M311.4,100L330.7,10C331.2,7.4,332.8,6.4,335.4,7C457.2,34.9,548,143.8,548,274C548,335.4,527.8,392.1,493.7,437.8C492.1,439.9,490.2,440.2,488.1,438.5L415.1,382.5C413,380.8,412.8,379,414.4,376.8C435.5,348,448,312.5,448,274C448,191.8,391,123,314.4,104.8C311.8,104.1,310.8,102.6,311.4,100z"/><text class="st2"><textPath xlink:href="#path2"><tspan x="187.7 206.7 225.7 244.7 " dy="4">核心部件</tspan></textPath></text></g><g transform="matrix(1,0,0,1,349,158)" ed:parentid="102" id="128" ed:width="872" ed:height="872"><path fill="#fee7c4" stroke-linejoin="round" stroke="#ffffff" stroke-width="2" d="M157,436L0,436C0,379.3,10.8,325.1,30.6,275.6L176.6,333.4C163.9,365.1,157,399.7,157,436z"/><text transform="matrix(0.98,0.19,-0.19,0.98,71,-9)" class="st4"><tspan style="white-space:pre" x="51" y="375.1">降低复杂度</tspan></text></g><g transform="matrix(1,0,0,1,213,22)" ed:parentid="128" id="140" ed:width="1144" ed:height="1144"><path fill="#ffefda" stroke-linejoin="round" stroke="#ffffff" stroke-width="2" d="M131,572L0,572C0,534.7,3.6,498.2,10.5,463.1L139.1,488.1C133.7,515.2,131,543.3,131,572z"/><text transform="matrix(1,0.1,-0.1,1,50,-4)" class="st4"><tspan style="white-space:pre" x="14" y="529.6">接口定义服务边界</tspan></text></g><g transform="matrix(1,0,0,1,22,-169)" ed:parentid="104" id="142" ed:width="1526" ed:height="1526"><path fill="#f4d8e9" stroke-linejoin="round" stroke="#ffffff" stroke-width="2" d="M1220.5,1114.6L1368,1227.9C1354.2,1245.9,1339.6,1263.3,1324.2,1279.9L1187.4,1153.9C1199,1141.3,1210.1,1128.2,1220.5,1114.6z"/><text transform="matrix(0.76,0.64,-0.64,0.76,1069,-541)" class="st4"><tspan style="white-space:pre" x="1250" y="1197.5">provider</tspan></text></g><g transform="matrix(1,0,0,1,349,158)" ed:parentid="114" id="162" ed:width="872" ed:height="872"><path fill="#dddad1" stroke-linejoin="round" stroke="#ffffff" stroke-width="2" d="M494.6,163.2L527.5,9.7C553.3,15.1,578,22.9,601.6,32.7L541.9,177.9C526.8,171.6,511,166.7,494.6,163.2z"/><text transform="matrix(0.3,-0.96,0.96,0.3,291,584)" class="st4"><tspan style="white-space:pre" x="514" y="100.5">服务注册</tspan></text></g><g transform="matrix(1,0,0,1,213,22)" ed:parentid="128" id="172" ed:width="1144" ed:height="1144"><path fill="#fee7c4" stroke-linejoin="round" stroke="#ffffff" stroke-width="2" d="M139.1,488.1L10.5,463.1C17.2,427.8,27.2,393.8,40.1,361.6L161.9,409.8C151.9,434.7,144.2,460.9,139.1,488.1z"/><text transform="matrix(0.96,0.28,-0.28,0.96,124,-7)" class="st4"><tspan style="white-space:pre" x="45" y="436">专注单一功能</tspan></text></g><g transform="matrix(1,0,0,1,22,-169)" ed:parentid="140" id="176" ed:width="1526" ed:height="1526"><path fill="#fee7c4" stroke-linejoin="round" stroke="#ffffff" stroke-width="2" d="M186,763L0,763C0,738.3,1.2,713.9,3.5,690.1L188.6,707.8C186.9,726,186,744.4,186,763z"/><text transform="matrix(1,0.05,-0.05,1,35,-4)" class="st4"><tspan style="white-space:pre" x="79" y="736.9">缓存</tspan></text></g><g transform="matrix(1,0,0,1,22,-169)" ed:parentid="140" id="180" ed:width="1526" ed:height="1526"><path fill="#fee7c4" stroke-linejoin="round" stroke="#ffffff" stroke-width="2" d="M188.6,707.8L3.5,690.1C5.8,665.3,9.3,641.2,13.9,617.8L196.5,653.2C193,671,190.4,689.3,188.6,707.8z"/><text transform="matrix(0.99,0.14,-0.14,0.99,97,-7)" class="st4"><tspan style="white-space:pre" x="19" y="673.1">DLA（Data Access Layer）</tspan></text></g><g transform="matrix(1,0,0,1,349,158)" ed:parentid="102" id="182" ed:width="872" ed:height="872"><path fill="#fee7c4" stroke-linejoin="round" stroke="#ffffff" stroke-width="2" d="M176.6,333.4L30.6,275.6C50,226.3,78.1,181.6,113,143.1L229.3,248.6C207,273.2,189,301.8,176.6,333.4z"/><text transform="matrix(0.85,0.53,-0.53,0.85,151,-33)" class="st4"><tspan style="white-space:pre" x="105" y="253.1">独立部署</tspan></text></g><g transform="matrix(1,0,0,1,349,158)" ed:parentid="102" id="184" ed:width="872" ed:height="872"><path fill="#fee7c4" stroke-linejoin="round" stroke="#ffffff" stroke-width="2" d="M229.3,248.6L113,143.1C149.7,102.7,193.9,69.2,243.4,44.8L312.8,185.7C281.1,201.3,252.8,222.7,229.3,248.6z"/><text transform="matrix(0.6,0.8,-0.8,0.6,208,-116)" class="st4"><tspan style="white-space:pre" x="206" y="156.5">容错</tspan></text></g><g transform="matrix(1,0,0,1,213,22)" ed:parentid="182" id="186" ed:width="1144" ed:height="1144"><path fill="#fee7c4" stroke-linejoin="round" stroke="#ffffff" stroke-width="2" d="M161.9,409.8L40.1,361.6C48.5,340,58.2,319.3,69.1,299.4L184.3,361.8C175.9,377.2,168.4,393.2,161.9,409.8z"/><text transform="matrix(0.91,0.42,-0.42,0.91,162,-14)" class="st4"><tspan style="white-space:pre" x="92" y="363.8">迭代快</tspan></text></g><g transform="matrix(1,0,0,1,213,22)" ed:parentid="182" id="188" ed:width="1144" ed:height="1144"><path fill="#fee7c4" stroke-linejoin="round" stroke="#ffffff" stroke-width="2" d="M184.3,361.8L69.1,299.4C80,279.2,92.1,259.8,105.4,241.2L212.2,317C202,331.3,192.7,346.3,184.3,361.8z"/><text transform="matrix(0.85,0.53,-0.53,0.85,182,-29)" class="st4"><tspan style="white-space:pre" x="114" y="310.4">测试量低</tspan></text></g><g transform="matrix(1,0,0,1,213,22)" ed:parentid="182" id="190" ed:width="1144" ed:height="1144"><path fill="#fee7c4" stroke-linejoin="round" stroke="#ffffff" stroke-width="2" d="M212.2,317L105.4,241.2C118.6,222.5,132.9,204.7,148.3,187.7L245.3,275.7C233.5,288.8,222.4,302.5,212.2,317z"/><text transform="matrix(0.78,0.63,-0.63,0.78,199,-55)" class="st4"><tspan style="white-space:pre" x="143" y="260.8">发布风险低</tspan></text></g><g transform="matrix(1,0,0,1,349,158)" ed:parentid="102" id="192" ed:width="872" ed:height="872"><path fill="#fee7c4" stroke-linejoin="round" stroke="#ffffff" stroke-width="2" d="M312.8,185.7L243.4,44.8C287.3,23.1,335.4,8.6,386.2,2.9L404.1,158.8C371.6,162.5,340.8,171.8,312.8,185.7z"/><text transform="matrix(0.28,0.96,-0.96,0.28,330,-255)" class="st4"><tspan style="white-space:pre" x="321" y="99">扩展</tspan></text></g><g transform="matrix(1,0,0,1,213,22)" ed:parentid="184" id="194" ed:width="1144" ed:height="1144"><path fill="#fee7c4" stroke-linejoin="round" stroke="#ffffff" stroke-width="2" d="M245.3,275.7L148.3,187.7C160.4,174.4,173,161.7,186.3,149.6L274.6,246.3C264.4,255.7,254.6,265.5,245.3,275.7z"/><text transform="matrix(0.71,0.71,-0.71,0.71,214,-88)" class="st4"><tspan style="white-space:pre" x="186" y="220.5">故障隔离</tspan></text></g><g transform="matrix(1,0,0,1,213,22)" ed:parentid="184" id="198" ed:width="1144" ed:height="1144"><path fill="#fee7c4" stroke-linejoin="round" stroke="#ffffff" stroke-width="2" d="M274.6,246.3L186.3,149.6C199.5,137.5,213.4,126,227.7,115.2L306.6,219.8C295.5,228.1,284.8,237,274.6,246.3z"/><text transform="matrix(0.64,0.77,-0.77,0.64,230,-125)" class="st4"><tspan style="white-space:pre" x="234" y="188.3">限流</tspan></text></g><g transform="matrix(1,0,0,1,213,22)" ed:parentid="184" id="200" ed:width="1144" ed:height="1144"><path fill="#fee7c4" stroke-linejoin="round" stroke="#ffffff" stroke-width="2" d="M340.9,196.4L272.2,84.8C287.4,75.4,303.1,66.7,319.4,58.8L377.2,176.3C364.7,182.4,352.6,189.1,340.9,196.4z"/><text transform="matrix(0.48,0.88,-0.88,0.48,282,-220)" class="st4"><tspan style="white-space:pre" x="313" y="134.6">熔断</tspan></text></g><g transform="matrix(1,0,0,1,213,22)" ed:parentid="184" id="204" ed:width="1144" ed:height="1144"><path fill="#fee7c4" stroke-linejoin="round" stroke="#ffffff" stroke-width="2" d="M306.6,219.8L227.7,115.2C242,104.4,256.9,94.2,272.2,84.8L340.9,196.4C329,203.7,317.6,211.5,306.6,219.8z"/><text transform="matrix(0.56,0.83,-0.83,0.56,252,-170)" class="st4"><tspan style="white-space:pre" x="272" y="159.6">降级</tspan></text></g><g transform="matrix(1,0,0,1,213,22)" ed:parentid="192" id="208" ed:width="1144" ed:height="1144"><path fill="#fee7c4" stroke-linejoin="round" stroke="#ffffff" stroke-width="2" d="M377.2,176.3L319.4,58.8C348.4,44.4,378.9,32.4,410.6,23.2L447.6,148.9C423,156,399.5,165.2,377.2,176.3z"/><text transform="matrix(0.36,0.93,-0.93,0.36,340,-298)" class="st4"><tspan style="white-space:pre" x="361" y="106.1">横向扩展</tspan></text></g><g transform="matrix(1,0,0,1,213,22)" ed:parentid="192" id="210" ed:width="1144" ed:height="1144"><path fill="#fee7c4" stroke-linejoin="round" stroke="#ffffff" stroke-width="2" d="M447.6,148.9L410.6,23.2C441.5,14,473.6,7.5,506.6,3.7L521.6,133.9C496,136.8,471.3,141.8,447.6,148.9z"/><text transform="matrix(0.2,0.98,-0.98,0.2,452,-401)" class="st4"><tspan style="white-space:pre" x="418" y="81.6">独立灵活按需扩展</tspan></text></g><g transform="matrix(1,0,0,1,349,158)" ed:parentid="114" id="212" ed:width="872" ed:height="872"><path fill="#dddad1" stroke-linejoin="round" stroke="#ffffff" stroke-width="2" d="M541.9,177.9L601.6,32.7C625.8,42.5,648.8,54.5,670.4,68.4L586,200.7C572.1,191.9,557.4,184.2,541.9,177.9z"/><text transform="matrix(0.46,-0.89,0.89,0.46,219,597)" class="st4"><tspan style="white-space:pre" x="573" y="124.7">服务发现</tspan></text></g><g transform="matrix(1,0,0,1,213,22)" ed:parentid="242" id="214" ed:width="1144" ed:height="1144"><path fill="#dddad1" stroke-linejoin="round" stroke="#ffffff" stroke-width="2" d="M883.6,259.9L976.2,167.2C983.6,174.7,990.8,182.3,997.8,190.1L900.3,277.6C894.9,271.5,889.3,265.7,883.6,259.9z"/><text transform="matrix(0.73,-0.69,0.69,0.73,104,708)" class="st4"><tspan style="white-space:pre" x="912" y="229.6">动态路由</tspan></text></g><g transform="matrix(1,0,0,1,213,22)" ed:parentid="234" id="216" ed:width="1144" ed:height="1144"><path fill="#dddad1" stroke-linejoin="round" stroke="#ffffff" stroke-width="2" d="M809.1,200.1L879.5,89.7C897,100.8,913.9,112.9,929.9,125.8L848,228C835.6,218,822.6,208.7,809.1,200.1z"/><text transform="matrix(0.58,-0.81,0.81,0.58,232,772)" class="st4"><tspan style="white-space:pre" x="853" y="166.3">熔断</tspan></text></g><g transform="matrix(1,0,0,1,213,22)" ed:parentid="234" id="218" ed:width="1144" ed:height="1144"><path fill="#dddad1" stroke-linejoin="round" stroke="#ffffff" stroke-width="2" d="M848,228L929.9,125.8C946.1,138.8,961.5,152.6,976.2,167.2L883.6,259.9C872.3,248.7,860.4,238,848,228z"/><text transform="matrix(0.67,-0.74,0.74,0.67,158,743)" class="st4"><tspan style="white-space:pre" x="895" y="200.7">降级</tspan></text></g><g transform="matrix(1,0,0,1,213,22)" ed:parentid="238" id="220" ed:width="1144" ed:height="1144"><path fill="#dddad1" stroke-linejoin="round" stroke="#ffffff" stroke-width="2" d="M988.8,428L1112.7,385.3C1124.9,420.3,1133.8,457,1138.8,495L1009,512.7C1005.1,483.3,998.3,455,988.8,428z"/><text transform="matrix(0.97,-0.23,0.23,0.97,-76,259)" class="st4"><tspan style="white-space:pre" x="1031" y="460.7">分页式配置</tspan></text></g><g transform="matrix(1,0,0,1,22,-169)" ed:parentid="104" id="222" ed:width="1526" ed:height="1526"><path fill="#f4d8e9" stroke-linejoin="round" stroke="#ffffff" stroke-width="2" d="M1187.4,1153.9L1324.2,1279.9C1308.9,1296.6,1292.8,1312.6,1276,1327.8L1150.9,1190.1C1163.6,1178.6,1175.8,1166.5,1187.4,1153.9z"/><text transform="matrix(0.7,0.71,-0.71,0.7,1244,-511)" class="st4"><tspan style="white-space:pre" x="1205" y="1241.4">consumer</tspan></text></g><g transform="matrix(1,0,0,1,22,-169)" ed:parentid="104" id="224" ed:width="1526" ed:height="1526"><path fill="#f4d8e9" stroke-linejoin="round" stroke="#ffffff" stroke-width="2" d="M1150.9,1190.1L1276,1327.8C1259.2,1343,1241.8,1357.5,1223.7,1371.2L1111.4,1222.9C1125.1,1212.6,1138.3,1201.6,1150.9,1190.1z"/><text transform="matrix(0.64,0.77,-0.77,0.64,1414,-454)" class="st4"><tspan style="white-space:pre" x="1168" y="1281.5">registry</tspan></text></g><g transform="matrix(1,0,0,1,22,-169)" ed:parentid="104" id="226" ed:width="1526" ed:height="1526"><path fill="#f4d8e9" stroke-linejoin="round" stroke="#ffffff" stroke-width="2" d="M1111.4,1222.9L1223.7,1371.2C1205.7,1384.9,1187.1,1397.8,1167.8,1409.8L1069.1,1252.1C1083.7,1243,1097.8,1233.3,1111.4,1222.9z"/><text transform="matrix(0.57,0.82,-0.82,0.57,1576,-373)" class="st4"><tspan style="white-space:pre" x="1120" y="1317.6">monitor</tspan></text></g><g transform="matrix(1,0,0,1,511,320)" ed:parentid="101" id="228" ed:width="548" ed:height="548"><path fill="#eec0dc" stroke-linejoin="round" stroke="#ffffff" stroke-width="3" d="M415.1,382.5L488.1,438.5C490.2,440.2,490.5,442,488.8,444.1C438.6,507.4,361,548,274,548C237.7,548,203,540.9,171.4,528.1C168.9,527.1,168.2,525.3,169.3,522.9L204.9,438.1C206,435.6,207.7,434.9,210.2,435.9C229.9,443.7,251.5,448,274,448C328.8,448,377.6,422.7,409.5,383.2C411.2,381.1,413,380.8,415.1,382.5z"/><text class="st5"><textPath xlink:href="#path3"><tspan x="107.2 123.2 139.2 155.2 171.2 " dy="3.5">微服务架构</tspan></textPath></text></g><g transform="matrix(1,0,0,1,349,158)" ed:parentid="228" id="230" ed:width="872" ed:height="872"><path fill="#f4d8e9" stroke-linejoin="round" stroke="#ffffff" stroke-width="2" d="M657.2,606L781.7,701.7C721,780.6,633.8,838.2,533.3,861L498.3,708C562.6,693.3,618.4,656.5,657.2,606z"/><text transform="matrix(0.54,0.84,-0.84,0.54,910,-190)" class="st4"><tspan style="white-space:pre" x="569" y="742.9">一、传统侵入式架构</tspan></text></g><g transform="matrix(1,0,0,1,349,158)" ed:parentid="228" id="232" ed:width="872" ed:height="872"><path fill="#f4d8e9" stroke-linejoin="round" stroke="#ffffff" stroke-width="2" d="M498.3,708L533.3,861C502.1,868.2,469.5,872,436,872C376,872,318.8,859.9,266.8,837.9L327.8,693.1C361,707.2,397.6,715,436,715C457.5,715,478.4,712.6,498.3,708z"/><text transform="matrix(0.09,-1,1,0.09,-419,1127)" class="st4"><tspan style="white-space:pre" x="339" y="798.2">二、新型非侵入式架构</tspan></text></g><g transform="matrix(1,0,0,1,349,158)" ed:parentid="114" id="234" ed:width="872" ed:height="872"><path fill="#dddad1" stroke-linejoin="round" stroke="#ffffff" stroke-width="2" d="M586,200.7L670.4,68.4C697.1,85.4,721.8,105.2,744.1,127.5L633.1,238.6C618.9,224.3,603.1,211.6,586,200.7z"/><text transform="matrix(0.63,-0.78,0.78,0.63,124,573)" class="st4"><tspan style="white-space:pre" x="632" y="163.1">负载均衡</tspan></text></g><g transform="matrix(1,0,0,1,349,158)" ed:parentid="114" id="238" ed:width="872" ed:height="872"><path fill="#dddad1" stroke-linejoin="round" stroke="#ffffff" stroke-width="2" d="M699.7,344.9L848.1,293.7C857.5,320.4,864.2,348.4,868,377.3L712.5,398.5C710,379.9,705.7,361.9,699.7,344.9z"/><text transform="matrix(0.97,-0.23,0.23,0.97,-60,191)" class="st4"><tspan style="white-space:pre" x="756" y="359.2">配置中心</tspan></text></g><g transform="matrix(1,0,0,1,349,158)" ed:parentid="114" id="242" ed:width="872" ed:height="872"><path fill="#dddad1" stroke-linejoin="round" stroke="#ffffff" stroke-width="2" d="M633.1,238.6L744.1,127.5C772.3,155.7,796.7,187.8,816.4,222.9L679.4,299.7C666.8,277.2,651.2,256.6,633.1,238.6z"/><text transform="matrix(0.8,-0.6,0.6,0.8,13,480)" class="st4"><tspan style="white-space:pre" x="693" y="226.1">服务网关</tspan></text></g><g transform="matrix(1,0,0,1,213,22)" ed:parentid="242" id="244" ed:width="1144" ed:height="1144"><path fill="#dddad1" stroke-linejoin="round" stroke="#ffffff" stroke-width="2" d="M900.3,277.6L997.8,190.1C1004.9,197.9,1011.7,205.9,1018.2,214.1L916,296.1C911,289.8,905.7,283.6,900.3,277.6z"/><text transform="matrix(0.76,-0.65,0.65,0.76,69,678)" class="st4"><tspan style="white-space:pre" x="931" y="250.4">用户鉴权</tspan></text></g><g transform="matrix(1,0,0,1,213,22)" ed:parentid="242" id="246" ed:width="1144" ed:height="1144"><path fill="#dddad1" stroke-linejoin="round" stroke="#ffffff" stroke-width="2" d="M916,296.1L1018.2,214.1C1024.8,222.3,1031.2,230.7,1037.3,239.3L930.7,315.5C926,308.8,921.1,302.4,916,296.1z"/><text transform="matrix(0.8,-0.6,0.6,0.8,37,643)" class="st4"><tspan style="white-space:pre" x="948" y="272.1">灰度发布</tspan></text></g><g transform="matrix(1,0,0,1,213,22)" ed:parentid="242" id="248" ed:width="1144" ed:height="1144"><path fill="#dddad1" stroke-linejoin="round" stroke="#ffffff" stroke-width="2" d="M930.7,315.5L1037.3,239.3C1043.4,247.8,1049.3,256.5,1054.9,265.4L944.3,335.6C940,328.7,935.4,322,930.7,315.5z"/><text transform="matrix(0.83,-0.56,0.56,0.83,8,604)" class="st4"><tspan style="white-space:pre" x="969" y="294.8">AB测试</tspan></text></g><g transform="matrix(1,0,0,1,213,22)" ed:parentid="242" id="252" ed:width="1144" ed:height="1144"><path fill="#dddad1" stroke-linejoin="round" stroke="#ffffff" stroke-width="2" d="M944.3,335.6L1054.9,265.4C1060.6,274.2,1066,283.2,1071,292.5L956.8,356.5C952.8,349.3,948.7,342.4,944.3,335.6z"/><text transform="matrix(0.86,-0.51,0.51,0.86,-18,560)" class="st4"><tspan style="white-space:pre" x="979" y="318.4">负载限流</tspan></text></g><g transform="matrix(1,0,0,1,349,158)" ed:parentid="114" id="254" ed:width="872" ed:height="872"><path fill="#dddad1" stroke-linejoin="round" stroke="#ffffff" stroke-width="2" d="M679.4,299.7L816.4,222.9C829,245.3,839.7,268.9,848.1,293.7L699.7,344.9C694.3,329,687.5,313.9,679.4,299.7z"/><text transform="matrix(0.91,-0.41,0.41,0.91,-52,337)" class="st4"><tspan style="white-space:pre" x="737" y="295.7">API管理</tspan></text></g><g transform="matrix(1,0,0,1,349,158)" ed:parentid="114" id="256" ed:width="872" ed:height="872"><path fill="#dddad1" stroke-linejoin="round" stroke="#ffffff" stroke-width="2" d="M712.5,398.5L868,377.3C870.7,396.5,872,416.1,872,436C872,445.2,871.7,454.3,871.1,463.3L714.5,453.4C714.8,447.7,715,441.9,715,436C715,423.2,714.1,410.7,712.5,398.5z"/><text transform="matrix(1,-0.04,0.04,1,-15,29)" class="st4"><tspan style="white-space:pre" x="766" y="429.1">集成框架</tspan></text></g><g transform="matrix(1,0,0,1,213,22)" ed:parentid="256" id="258" ed:width="1144" ed:height="1144"><path fill="#dddad1" stroke-linejoin="round" stroke="#ffffff" stroke-width="2" d="M1009,512.7L1138.8,495C1142.2,520.2,1144,545.9,1144,572C1144,584.1,1143.6,596,1142.9,607.8L1012.1,599.6C1012.7,590.5,1013,581.3,1013,572C1013,551.8,1011.6,531.9,1009,512.7z"/><text transform="matrix(1,-0.04,0.04,1,-19,39)" class="st4"><tspan style="white-space:pre" x="1038" y="559.7">统一管理界面</tspan></text></g><g transform="matrix(1,0,0,1,349,158)" ed:parentid="114" id="260" ed:width="872" ed:height="872"><path fill="#dddad1" stroke-linejoin="round" stroke="#ffffff" stroke-width="2" d="M714.5,453.4L871.1,463.3C869.5,489.7,865.6,515.3,859.4,539.9L707,502.5C710.9,486.7,713.4,470.3,714.5,453.4z"/><text transform="matrix(0.99,0.15,-0.15,0.99,83,-114)" class="st4"><tspan style="white-space:pre" x="755" y="496">分页式事务</tspan></text></g><g transform="matrix(1,0,0,1,349,158)" ed:parentid="114" id="262" ed:width="872" ed:height="872"><path fill="#dddad1" stroke-linejoin="round" stroke="#ffffff" stroke-width="2" d="M707,502.5L859.4,539.9C853.3,565.5,844.8,590,834.3,613.3L690.9,549.4C697.6,534.5,703,518.8,707,502.5z"/><text transform="matrix(0.95,0.32,-0.32,0.95,220,-221)" class="st4"><tspan style="white-space:pre" x="753" y="557.7">调用链</tspan></text></g><g transform="matrix(1,0,0,1,349,158)" ed:parentid="114" id="264" ed:width="872" ed:height="872"><path fill="#dddad1" stroke-linejoin="round" stroke="#ffffff" stroke-width="2" d="M690.9,549.4L834.3,613.3C820.3,645,802.6,674.6,781.7,701.7L657.2,606C670.6,588.7,681.9,569.7,690.9,549.4z"/><text transform="matrix(0.86,0.51,-0.51,0.86,421,-293)" class="st4"><tspan style="white-space:pre" x="716" y="624.9">支撑平台</tspan></text></g><g transform="matrix(1,0,0,1,213,22)" ed:parentid="264" id="266" ed:width="1144" ed:height="1144"><path fill="#dddad1" stroke-linejoin="round" stroke="#ffffff" stroke-width="2" d="M974.9,751.3L1094.6,804.6C1088.6,818.4,1081.9,831.9,1074.7,844.9L959.6,782.4C965.2,772.3,970.3,762,974.9,751.3z"/><text transform="matrix(0.9,0.44,-0.44,0.9,458,-372)" class="st4"><tspan style="white-space:pre" x="1007" y="798.9">CI/CD</tspan></text></g><g transform="matrix(1,0,0,1,213,22)" ed:parentid="264" id="270" ed:width="1144" ed:height="1144"><path fill="#dddad1" stroke-linejoin="round" stroke="#ffffff" stroke-width="2" d="M959.6,782.4L1074.7,844.9C1067.6,858.2,1059.9,871.2,1051.6,883.7L941.8,812.3C948.1,802.6,954.1,792.7,959.6,782.4z"/><text transform="matrix(0.86,0.51,-0.51,0.86,567,-398)" class="st4"><tspan style="white-space:pre" x="980" y="837">蓝绿发布</tspan></text></g><g transform="matrix(1,0,0,1,213,22)" ed:parentid="264" id="272" ed:width="1144" ed:height="1144"><path fill="#dddad1" stroke-linejoin="round" stroke="#ffffff" stroke-width="2" d="M941.8,812.3L1051.6,883.7C1043.4,896.4,1034.7,908.7,1025.5,920.6L921.7,840.7C928.8,831.6,935.5,822.1,941.8,812.3z"/><text transform="matrix(0.82,0.58,-0.58,0.82,680,-410)" class="st4"><tspan style="white-space:pre" x="958" y="870.5">健康检查</tspan></text></g><g transform="matrix(1,0,0,1,349,158)" ed:parentid="102" id="274" ed:width="872" ed:height="872"><path fill="#fee7c4" stroke-linejoin="round" stroke="#ffffff" stroke-width="2" d="M404.1,158.8L386.2,2.9C402.5,1,419.1,0,436,0C467.5,0,498.2,3.3,527.5,9.7L494.6,163.2C475.7,159.1,456.1,157,436,157C425.2,157,414.5,157.6,404.1,158.8z"/><text transform="matrix(0.05,-1,1,0.05,353,528)" class="st4"><tspan style="white-space:pre" x="432" y="84.9">松耦合</tspan></text></g><g transform="matrix(1,0,0,1,213,22)" ed:parentid="274" id="276" ed:width="1144" ed:height="1144"><path fill="#fee7c4" stroke-linejoin="round" stroke="#ffffff" stroke-width="2" d="M521.6,133.9L506.6,3.7C528,1.3,549.9,0,572,0C613.3,0,653.5,4.4,692.1,12.7L664.6,140.8C634.8,134.4,603.8,131,572,131C554.9,131,538,132,521.6,133.9z"/><text transform="matrix(0.05,-1,1,0.05,502,659)" class="st4"><tspan style="white-space:pre" x="576" y="72.1">跨语言</tspan></text></g><g transform="matrix(1,0,0,1,511,320)" ed:parentid="101" id="278" ed:width="548" ed:height="548"><path fill="#8ed1bc" stroke-linejoin="round" stroke="#ffffff" stroke-width="3" d="M204.9,438.1L169.3,522.9C168.2,525.3,166.5,526,164,525C68.6,483.1,1.6,388.5,0,278C-0,275.3,1.3,274,4,274L96,274C98.7,274,100,275.3,100,278C101.6,347,143.3,406.1,202.8,432.8C205.3,433.9,206,435.6,204.9,438.1z"/><text class="st5"><textPath xlink:href="#path4"><tspan x="115.3 131.3 " dy="3.5">挑战</tspan></textPath></text></g><g transform="matrix(1,0,0,1,349,158)" ed:parentid="278" id="280" ed:width="872" ed:height="872"><path fill="#bee2d6" stroke-linejoin="round" stroke="#ffffff" stroke-width="2" d="M327.8,693.1L266.8,837.9C236.1,825,207.3,808.7,180.7,789.5L272.7,662.2C289.7,674.5,308.1,684.9,327.8,693.1z"/><text transform="matrix(0.49,-0.87,0.87,0.49,-519,609)" class="st4"><tspan style="white-space:pre" x="214" y="753.7">微服务划分逻辑</tspan></text></g><g transform="matrix(1,0,0,1,349,158)" ed:parentid="278" id="282" ed:width="872" ed:height="872"><path fill="#bee2d6" stroke-linejoin="round" stroke="#ffffff" stroke-width="2" d="M272.7,662.2L180.7,789.5C149.5,766.9,121.5,740.4,97.3,710.5L219.2,611.7C234.7,630.8,252.7,647.8,272.7,662.2z"/><text transform="matrix(0.69,-0.73,0.73,0.69,-446,356)" class="st4"><tspan style="white-space:pre" x="150" y="701.7">分布式复杂性</tspan></text></g><g transform="matrix(1,0,0,1,213,22)" ed:parentid="282" id="284" ed:width="1144" ed:height="1144"><path fill="#bee2d6" stroke-linejoin="round" stroke="#ffffff" stroke-width="2" d="M313.8,929.5L237.1,1035.7C223.5,1025.9,210.3,1015.5,197.6,1004.5L283.4,905.4C293.1,913.9,303.3,921.9,313.8,929.5z"/><text transform="matrix(0.62,-0.78,0.78,0.62,-662,570)" class="st4"><tspan style="white-space:pre" x="230" y="975.2">服务发现</tspan></text></g><g transform="matrix(1,0,0,1,213,22)" ed:parentid="282" id="286" ed:width="1144" ed:height="1144"><path fill="#bee2d6" stroke-linejoin="round" stroke="#ffffff" stroke-width="2" d="M283.4,905.4L197.6,1004.5C184.9,993.5,172.7,981.9,161,969.8L255.1,878.7C264.1,888,273.6,896.9,283.4,905.4z"/><text transform="matrix(0.69,-0.73,0.73,0.69,-613,457)" class="st4"><tspan style="white-space:pre" x="209" y="946">追踪</tspan></text></g><g transform="matrix(1,0,0,1,213,22)" ed:parentid="282" id="288" ed:width="1144" ed:height="1144"><path fill="#bee2d6" stroke-linejoin="round" stroke="#ffffff" stroke-width="2" d="M255.1,878.7L161,969.8C149.3,957.8,138.2,945.2,127.6,932.1L229.4,849.7C237.5,859.7,246.1,869.4,255.1,878.7z"/><text transform="matrix(0.75,-0.66,0.66,0.75,-554,356)" class="st4"><tspan style="white-space:pre" x="178" y="913.9">定位</tspan></text></g><g transform="matrix(1,0,0,1,349,158)" ed:parentid="278" id="290" ed:width="872" ed:height="872"><path fill="#bee2d6" stroke-linejoin="round" stroke="#ffffff" stroke-width="2" d="M219.2,611.7L97.3,710.5C76.6,685,58.7,657.1,44.2,627.2L185.3,558.4C194.6,577.5,206,595.4,219.2,611.7z"/><text transform="matrix(0.84,-0.54,0.54,0.84,-317,171)" class="st4"><tspan style="white-space:pre" x="101" y="634.2">分布式事务</tspan></text></g><g transform="matrix(1,0,0,1,349,158)" ed:parentid="278" id="292" ed:width="872" ed:height="872"><path fill="#bee2d6" stroke-linejoin="round" stroke="#ffffff" stroke-width="2" d="M185.3,558.4L44.2,627.2C29.8,598,18.6,566.8,11.2,534.1L164.2,498.8C168.9,519.8,176.1,539.7,185.3,558.4z"/><text transform="matrix(0.94,-0.33,0.33,0.94,-180,65)" class="st4"><tspan style="white-space:pre" x="72" y="561.4">测试挑战</tspan></text></g><g transform="matrix(1,0,0,1,349,158)" ed:parentid="278" id="294" ed:width="872" ed:height="872"><path fill="#bee2d6" stroke-linejoin="round" stroke="#ffffff" stroke-width="2" d="M164.2,498.8L11.2,534.1C3.8,502.7,0,469.8,0,436L157,436C157,457.6,159.5,478.7,164.2,498.8z"/><text transform="matrix(0.99,-0.11,0.11,0.99,-53,12)" class="st4"><tspan style="white-space:pre" x="40" y="482.5">链路依赖更新</tspan></text></g><g transform="matrix(1,0,0,1,213,22)" ed:parentid="232" id="296" ed:width="1144" ed:height="1144"><path fill="#f4d8e9" stroke-linejoin="round" stroke="#ffffff" stroke-width="2" d="M670.5,1001.9L699.7,1129.6C658.7,1139,615.9,1144,572,1144C493.2,1144,418.2,1128.1,350.1,1099.2L400.9,978.5C453.5,1000.7,511.3,1013,572,1013C605.9,1013,638.9,1009.2,670.5,1001.9z"/><text transform="matrix(0.09,-1,1,0.09,-590,1510)" class="st4"><tspan style="white-space:pre" x="488" y="1079.6">service mesh</tspan></text></g></svg>